<svg version="1.2" xmlns="http://www.w3.org/2000/svg" viewBox="0 0 564 552" width="564" height="552">
	<title>SBB</title>
	<style>
		.s0 { fill: #000000 } 
		.s1 { fill: #fafafa } 
		.s2 { fill: #1e141f } 
		.s3 { fill: #940ff3 } 
		.s4 { fill: #81821c } 
		.s5 { fill: #fb1aa7 } 
		.s6 { fill: #7f757d } 
		.s7 { fill: #8415ad } 
	</style>
	<g id="Background">
		<path id="Path 0" class="s0" d="m0 0h564v552h-564v-276z"/>
		<path id="Path 1" class="s1" d="m277.5 34.2c3.9-0.1 12.4 0.3 19 0.8 6.6 0.6 16.1 1.8 21 2.6 4.9 0.8 14.2 2.9 20.5 4.5 6.3 1.7 16.2 4.9 22 7.1 5.8 2.2 15.4 6.5 21.5 9.6 6.1 3.1 15.5 8.6 21 12.3 5.5 3.6 13.6 9.4 18 12.9 4.4 3.5 12.7 11.1 18.5 16.9 5.8 5.8 13.9 15.1 18 20.6 4.2 5.5 10.1 14.1 13.1 19 3.1 4.9 7.2 12.2 9.1 16 2 3.8 5.1 10.8 7.1 15.5 1.9 4.7 4.9 12.9 6.6 18.2 1.7 5.4 4.2 15.3 5.5 22 1.4 6.8 3 18.6 3.7 26.3 0.7 8.3 0.9 19.1 0.5 26.5-0.4 6.9-1.4 17.2-2.2 23-0.9 5.8-3.1 16.4-4.9 23.5-1.8 7.1-5 17.3-7 22.5-2 5.2-6 14.2-8.9 20-2.9 5.8-7.2 13.6-9.6 17.5-2.4 3.9-7.5 11.3-11.4 16.5-3.8 5.2-13.1 15.6-20.5 23.1-7.5 7.5-18.1 16.9-23.6 21-5.5 4.1-13.8 9.7-18.5 12.6-4.7 2.8-12.1 6.9-16.5 9.1-4.4 2.1-12.1 5.5-17 7.5-4.9 1.9-10 3.8-11.2 4.1-1.3 0.3-2.3 0.2-2.3-0.4 0-0.6 0.9-2.4 2-4 1.2-1.7 2.4-6.1 2.9-10.3 0.6-3.9 2.6-17.6 4.6-30.2 2-12.6 4.2-23.6 4.8-24.4 0.7-0.8 6.1-5.1 12.2-9.7 6.1-4.5 14.2-11.3 18-15 3.9-3.8 9.5-9.8 12.4-13.4 3-3.6 7.8-10.1 10.7-14.5 2.8-4.4 7-11.6 9.2-16 2.2-4.4 5.4-12.1 7.1-17 1.8-4.9 3.9-11.7 4.7-15 0.9-3.3 2-8.5 2.5-11.5 0.5-3 1.3-10.4 1.9-16.5 0.6-7.1 0.5-15.5-0.1-23.5-0.6-6.9-1.7-15.7-2.5-19.5-0.8-3.8-2.8-11.5-4.5-17-1.7-5.5-5-14.1-7.3-19-2.4-4.9-6.2-12.2-8.6-16-2.3-3.8-7.1-10.6-10.5-15-3.5-4.4-10.1-11.7-14.6-16.2-4.6-4.6-11.8-10.8-15.9-13.9-4.1-3.1-11.1-7.8-15.5-10.4-4.4-2.5-11.6-6.3-16-8.3-4.4-2-10.7-4.5-14-5.6-3.3-1.1-9.6-2.8-14-3.9-4.4-1.1-11.4-2.6-15.5-3.3-4.3-0.8-14.6-1.3-24-1.3-12.4 0.1-19.4 0.6-28.2 2.2-6.5 1.2-16.2 3.6-21.5 5.3-5.4 1.7-15.6 5.9-22.8 9.5-7.2 3.5-17.3 9.5-22.5 13.1-5.2 3.7-14.4 11.7-20.5 17.8-6.1 6-13.9 15.1-17.3 20-3.5 5-8.3 12.6-10.7 17-2.5 4.4-6.3 12.9-8.6 19-2.3 6.1-5.2 15.7-6.5 21.5-1.3 5.8-2.8 15.7-3.5 22-0.6 6.4-0.8 15.9-0.4 21.5 0.3 5.5 1.3 13.8 2 18.5 0.8 4.7 2.6 12.3 3.9 17 1.3 4.7 3.6 11.6 5 15.5 1.5 3.9 5 11.3 7.8 16.5 2.7 5.2 7.5 13.1 10.6 17.5 3 4.4 11.4 13.9 18.6 21 8.5 8.5 16.4 15.3 22.6 19.4 5.2 3.5 13 8.1 17.3 10.2 4.2 2.2 8.4 3.9 9.2 3.9 0.8 0 3.3 2.6 9.5 11.5l-1.5 41.2 6.3 7.4c3.4 4.1 6.2 7.7 6.2 8.1 0 0.5-0.9 0.8-2 0.8-1.1 0-7.5-1.6-14.2-3.6-6.8-1.9-16.8-5.3-22.3-7.6-5.5-2.2-12.9-5.5-16.5-7.3-3.6-1.8-10.6-5.7-15.5-8.6-4.9-2.9-13.5-8.7-19-12.9-5.5-4.1-14.4-11.8-19.9-17-5.4-5.2-13.3-13.6-17.4-18.5-4.2-4.9-10.8-13.9-14.8-20-4-6.1-9.9-16.4-13.2-23-3.3-6.6-7.6-16.5-9.7-22-2-5.5-5-14.9-6.5-21-1.6-6.1-3.6-16.2-4.6-22.5-1.4-8.6-1.8-17.1-1.8-33.5 0-18.5 0.4-24.1 2.3-35 1.3-7.2 3.8-18.2 5.6-24.5 1.8-6.3 4.7-15.1 6.5-19.5 1.7-4.4 5.6-12.9 8.6-19 3.1-6.1 8.4-15.3 11.8-20.5 3.4-5.2 9.1-13.1 12.6-17.5 3.5-4.4 10.3-12 15-16.9 4.7-4.9 13-12.5 18.5-16.9 5.5-4.4 14.5-11 20-14.6 5.5-3.5 16.1-9.4 23.5-13.1 7.4-3.6 19.1-8.4 26-10.7 6.9-2.3 17.7-5.3 24-6.7 6.3-1.3 15.8-2.9 21-3.5 5.2-0.6 11.5-1.3 14-1.4 2.5-0.2 7.6-0.4 11.5-0.5z"/>
		<path id="Path 2" class="s2" d="m284.5 94.6c7.1 0.2 16.6 1 21 1.8 4.4 0.8 10.9 2.2 14.5 3.1 3.6 0.9 9.2 2.5 12.5 3.6 3.3 1.1 9.6 3.6 14 5.6 4.4 2 11.6 5.8 16 8.3 4.4 2.6 11.4 7.3 15.5 10.4 4.1 3.1 11.3 9.3 15.9 13.9 4.5 4.5 11.1 11.8 14.6 16.2 3.4 4.4 8.2 11.2 10.5 15 2.4 3.8 6.2 11.1 8.6 16 2.3 4.9 5.6 13.5 7.3 19 1.7 5.5 3.7 13.2 4.5 17 0.8 3.8 1.9 12.6 2.5 19.5 0.6 8 0.7 16.4 0.1 23.5-0.6 6.1-1.4 13.5-1.9 16.5-0.5 3-1.6 8.2-2.5 11.5-0.8 3.3-2.9 10.1-4.7 15-1.7 4.9-4.9 12.6-7.1 17-2.2 4.4-6.4 11.6-9.2 16-2.9 4.4-7.7 10.9-10.7 14.5-2.9 3.6-8.5 9.6-12.4 13.4-3.8 3.7-11.9 10.5-18 15-6.1 4.6-11.5 8.9-12.2 9.7-0.6 0.8-2.8 11.8-4.7 24.4-2 12.6-3.8 24.2-4.1 25.8-0.4 1.9-1.5 3.2-4.3 4.4-2 0.9-4 1.6-4.5 1.5-0.4-0.1-1.3 0.2-2 0.8-0.6 0.5-1.5 0.7-2 0.2-0.4-0.4-0.7 0.1-0.7 1.1 0 0.9-0.4 1.7-1 1.7-0.6 0-0.8 2.3-0.4 6.3 0.6 5 0.4 6.5-1 8-0.9 0.9-1.8 1.5-2.1 1.2-0.3-0.3-0.1-1.4 0.5-2.5 0.6-1.1 1-3.5 1-5.2 0-1.8-0.8-5.5-1.8-8.3-1-2.7-3.3-7.2-5.2-10-1.9-2.7-5.2-6.9-7.5-9.3-3.1-3.3-4.7-4.2-7.3-4.2-1.7 0-4.7 0.7-6.5 1.5-1.7 0.8-6.4 2.7-10.4 4.2-5.1 2-7.4 3.4-7.7 4.8-0.2 1.1-2.5 8-5 15.3-2.5 7.2-4.6 13.6-4.6 14.2 0 0.6 1 3.1 2.2 5.8 1.2 2.6 2.4 4.9 2.7 5.2 0.3 0.3 1.2 2 1.8 3.8 1.3 3.2 1.3 3.2-1.5 2.9-1.5-0.2-4.7-1.4-7.2-2.6-2.5-1.3-5.5-2.1-6.6-2-2.2 0.4-2.2 0.3-1.9-17.6 0.2-9.9-0.1-19-0.6-20.2-0.5-1.3-1.6-2.3-2.4-2.3-0.8 0-3.9 1.8-6.8 4.1-2.8 2.2-5.5 4.8-5.9 5.7-0.4 1-0.7 3.7-0.7 6.2-0.1 2.5-0.6 5.2-1.1 6-0.9 1.3-1.2 1.3-2.3-0.2-0.6-1-1.8-1.7-2.5-1.8-0.6 0-1-0.4-0.7-1 0.3-0.6-0.8-0.9-2.8-0.7-2 0.2-4-0.3-5.5-1.5-1.2-1-2.6-1.6-3.2-1.3-0.6 0.3-1 0.1-1-0.5 0-0.6-0.3-0.9-0.8-0.9-0.4 0.1-0.9 0-1.2-0.1-0.3-0.1-1.4-0.4-2.5-0.6-1.1-0.3-2.7-0.7-3.5-0.9-0.8-0.2-2.6-0.7-6.3-2l1.3-41-4-5.7c-2.2-3.2-4.7-5.8-5.5-5.8-0.8 0-5-1.7-9.3-3.9-4.2-2.1-12-6.7-17.2-10.2-6.2-4.1-14.1-10.9-22.6-19.4-7.2-7.1-15.6-16.6-18.6-21-3.1-4.4-7.9-12.3-10.6-17.5-2.8-5.2-6.3-12.6-7.8-16.5-1.4-3.9-3.7-10.8-5-15.5-1.3-4.7-3.1-12.3-3.9-17-0.7-4.7-1.7-13-2-18.5-0.4-5.6-0.2-15.1 0.4-21.5 0.7-6.3 2.2-16.2 3.5-22 1.3-5.8 4.2-15.4 6.5-21.5 2.3-6.1 6.1-14.6 8.6-19 2.4-4.4 7.2-12 10.7-17 3.4-4.9 11.2-14 17.3-20 6.1-6.1 15.3-14.1 20.5-17.8 5.2-3.6 15.3-9.6 22.5-13.1 7.2-3.6 17.3-7.8 22.5-9.4 5.2-1.7 13.6-3.8 18.5-4.7 4.9-1 12.4-2.1 16.5-2.6 4.1-0.4 13.4-0.6 20.5-0.3z"/>
		<path id="Path 3" class="s3" d="m316 432c2.9 0 4.2 0.7 7.5 4.2 2.3 2.4 5.6 6.5 7.5 9.3 1.9 2.7 4.2 7.2 5.2 10 1 2.7 1.8 6.2 1.8 7.7 0 1.6-0.8 5.1-1.8 7.9-1.1 3.3-2.7 5.9-4.5 7-1.5 1.1-2.7 2.6-2.7 3.4 0 0.8-1.9 3.1-4.3 5-2.3 2-4.5 3.5-5 3.5-0.4 0-2.6 1.2-5 2.6-3.5 2.2-4.9 2.5-8.2 1.9-2.2-0.5-4.6-1.4-5.3-2.1-0.6-0.8-1.8-1.4-2.5-1.4-0.6 0-3.3-0.9-6-2-3.4-1.4-4.7-2.6-4.7-4 0-1.1-0.4-2.1-0.8-2.3-0.4-0.1-1.8-2.3-3-5-1.2-2.6-2.2-5.1-2.2-5.7 0-0.6 2.1-7 4.6-14.3 2.5-7.2 4.8-14.1 5-15.2 0.3-1.4 2.6-2.8 7.7-4.8 4-1.5 8.6-3.4 10.2-4.2 1.6-0.7 4.6-1.4 6.5-1.5zm-47.8 13c1 0 2.2 1 2.7 2.2 0.5 1.3 0.8 10 0.8 19.4-0.2 15.7-0.4 17.4-2.2 19.3-1.1 1.2-2.7 2.1-3.5 2.1-0.8 0-3.9-2.2-12.3-9.5l0.7-11c0.5-6.1 1.1-11.7 1.4-12.7 0.4-0.9 2.9-3.4 5.7-5.7 2.7-2.2 5.8-4 6.7-4.1z"/>
		<path id="Path 4" class="s0" d="m260.5 49.4c1.7 0.1 2.2 1.4 3.7 9.6 0.9 5.2 1.7 11 1.7 12.8 0.1 2.2-0.8 4.2-2.8 6.5-1.5 1.7-4.6 3.8-6.7 4.4-2.1 0.7-5.4 1.3-7.2 1.3-1.7 0-4.8-0.7-6.7-1.5-1.9-0.8-4.1-2.7-4.9-4.2-0.7-1.6-2.1-7.4-3-13-0.9-5.7-1.4-10.8-1.1-11.3 0.3-0.5 2.2-1 8-1l1.3 7.7c0.7 4.3 1.8 9.5 2.3 11.6 0.5 2 1.8 4.1 2.9 4.7 1.1 0.5 3.2 0.7 4.6 0.3 1.5-0.5 3.1-1.7 3.6-2.8 0.7-1.4 0.5-5.1-0.6-11.7-0.9-5.4-1.6-10.5-1.6-11.3 0-0.8 1-1.7 2.3-1.9 1.2-0.2 3.1-0.3 4.2-0.2zm9.7-0.5l23.3 0.6 0.3 2.8c0.1 1.6-0.3 2.7-1 2.8-0.7 0-4.2 0.1-14.3 0.4v3c0 2.9 0.1 3 5.3 3.3 5.1 0.2 5.2 0.3 5.2 3.2 0 2.9-0.1 3-10.5 3.5l-1 12h-8l-0.3-9.5c-0.2-5.2 0-12.3 0.3-15.8zm32.2 1.4c1.2 0.3 6.3 1.3 11.4 2.3 8.8 1.7 9.3 1.9 9.3 4.3 0 1.4-0.2 2.8-0.5 3.1-0.3 0.3-3.4-0.1-7-0.8-3.6-0.7-7-1-7.6-0.7-0.5 0.3-1 1.8-1 3.5 0 2.8 0.3 3 4.5 3.5 2.5 0.3 4.7 0.8 5 1.2 0.2 0.4 0.1 1.8-0.3 3.1-0.6 2.2-1 2.4-10.7 1l-1.5 5.9c-1.5 5.8-1.5 5.8-5 5.5-1.9-0.2-3.8-0.6-4.2-1-0.4-0.4 0.4-6.6 1.8-13.7 1.3-7.2 2.7-14.1 3.1-15.4 0.5-1.7 1.1-2.2 2.7-1.8zm29.2 7.7c2.2 0 5.7 0.6 7.9 1.2 2.2 0.7 5.4 2.6 7.2 4.3 2.4 2.2 3.3 3.9 3.3 6.2 0 2.3-0.8 4.1-3 6.3-2.5 2.6-2.8 3.3-1.9 5.2 0.9 1.8 0.8 3.1-0.7 6.1-1.2 2.5-2.9 4.1-4.9 4.8-2.2 0.8-4.4 0.6-8.7-0.5-3.5-1-7.2-2.9-12.9-8.1l2.3-1.7c2.2-1.5 2.5-1.5 4.8 0.2 1.4 1 3.8 2.3 5.3 2.9 1.8 0.7 3.4 0.8 4.7 0.1 1.3-0.6 1.9-1.8 1.8-3.3q-0.3-2.2-4-4c-2.1-0.9-3.8-2.3-3.8-3 0.1-0.7 0.5-1.9 1-2.7 0.8-1.3 1.5-1.3 4.2-0.4 2.5 0.9 3.8 0.9 5.2 0 1.3-0.8 1.7-1.8 1.2-3.4-0.3-1.4-1.8-2.6-3.8-3.2-1.8-0.6-4.3-1-5.5-1-1.4 0-2.3-0.6-2.3-1.5 0-0.8-0.3-2.2-0.6-3-0.5-1.2 0.1-1.5 3.2-1.5zm-111.8 1.1c3-0.1 4.8 0.5 6.2 1.9 1.1 1.1 2.3 3 2.6 4.2 0.4 1.3 0.1 3.3-0.5 4.5-0.9 1.9-0.8 2.3 0.4 2.3 0.9 0 2.4 0.9 3.5 2q2 2 2 6c0 2.8-0.6 4.7-2.2 6.3-1.3 1.3-6.1 3.8-10.8 5.5-4.6 1.8-8.9 3.1-9.5 2.9-0.5-0.2-3.4-6.8-6.5-14.6-3-7.7-5.2-14.3-5-14.5 0.3-0.3 3.9-1.8 8-3.5 4.2-1.6 9.4-3 11.8-3zm140.5 9.8l4.6 2.7c2.6 1.5 6.2 3.8 8.1 5.2 2 1.4 4.1 3.3 4.7 4.1 0.7 0.9 1.3 3.2 1.3 5.1 0 1.9-0.7 4.6-1.7 6-0.9 1.4-2.4 3-3.2 3.7-0.9 0.7-2.5 1.2-3.6 1.2-1.4 0-2.2 1-2.7 3.3-0.5 1.8-0.8 4.5-0.8 6 0 1.5-0.3 3-0.7 3.2-0.4 0.3-2.3-0.5-7.5-3.9l0.8-6c0.6-5.3 0.5-6.1-1.2-6.8-1-0.4-1.9-0.6-1.9-0.5-0.1 0.2-1.1 2-2.3 4-1.2 2.1-2.6 3.8-3.2 3.8-0.5 0-2.3-0.8-4-1.8-1.6-0.9-3.1-2-3.2-2.4-0.1-0.3 3.6-6.5 8.2-13.8zm-191.3 13.1c0.3 0 1.1 0.5 1.8 1.2 0.7 0.7 1.2 2 1.2 2.8 0 0.8-1.6 2.5-7 6l14.5 21.2-3 2.4c-1.7 1.3-3.5 2.4-4 2.4-0.6 0-3.9-4.3-7.5-9.6-3.6-5.3-6.8-9.8-7.3-10-0.4-0.2-2.3 0.6-4.3 1.8-3.1 2-3.7 2.1-4.9 0.8-0.8-0.8-1.5-2-1.7-2.7-0.2-0.6 4.6-4.6 10.7-8.7 6-4.2 11.2-7.6 11.5-7.6zm248.5 17.1l7.7 7.7c6.8 6.8 7.7 8.1 7.8 11.4 0 3-0.6 4.3-3 6.3-1.7 1.4-3.9 2.5-5 2.5-1.6 0-2 0.7-2 3 0 2.1-0.8 3.6-2.8 5-1.6 1.2-4.2 2-6.2 2-3-0.1-4.7-1.2-19.5-16l11.5-11zm-274.8 5.9c2.4 0 4.2 1 6.8 3.5 2.7 2.7 3.5 4.4 3.5 7 0 3.3 0.3 3.6 4.7 5.2 2.7 0.9 5.2 2.1 5.8 2.5 0.6 0.6-0.1 2-5 6.8l-4.5-2c-2.5-1.1-5-2-5.5-2-0.6 0-1.6 0.5-2.2 1.2-1 1.1-0.7 1.9 1.7 4.3 1.7 1.7 3 3.8 3 4.8 0 1-1.2 2.7-5.5 5.8l-10.8-10.8c-5.9-5.9-10.7-11.2-10.7-11.8 0-0.5 2.3-3.3 5.2-6.1 2.9-2.8 6.4-5.8 7.8-6.7 1.4-0.9 4-1.7 5.7-1.7zm295.3 24c1.9 0 5 0.9 6.7 2 1.8 1.1 4.5 3.9 6 6.2 2.2 3.4 2.8 5.4 2.8 10 0 5.2-0.3 6.1-3.5 9.3-1.9 2-5.8 4.5-8.5 5.7q-5 2-8.3 1.4c-1.7-0.3-4.7-1.8-6.5-3.4-1.7-1.6-4.3-5.3-5.6-8.3-1.6-3.7-2.1-6.4-1.7-8.6 0.3-1.8 1.9-4.7 3.4-6.5 1.6-1.8 4.9-4.3 7.3-5.5 2.4-1.2 6-2.3 7.9-2.3zm-317.6 2.1c1.7 0 4.9 0.8 7.1 1.8 2.2 1 5.7 3.7 7.7 6 3.3 3.6 3.8 4.8 3.8 8.9 0 3.6-0.7 5.9-3 9.5-1.6 2.6-4 5.4-5.3 6.2-1.2 0.9-3.8 1.8-5.7 2.2-2.4 0.4-4.9 0-8-1.4-2.5-1.1-5.9-3.3-7.6-4.9-1.7-1.6-3.6-4.7-4.2-6.9-0.6-2.4-0.7-5.1-0.2-7 0.5-1.6 2.1-4.5 3.6-6.4 1.5-1.9 4.1-4.5 5.7-5.8 1.7-1.2 4.4-2.2 6.1-2.2zm342.2 27.9c0.3 0 1.1 2 3.1 8.5l-4.4 5c-2.4 2.8-4.3 5.4-4.3 5.8 0 0.4 3.1 1.3 6.9 2 6.8 1.2 7 1.4 8.3 5 0.7 2 1.1 3.9 0.8 4.2-0.3 0.3-5.5-0.4-11.5-1.6-10.3-1.9-11.3-1.9-16-0.5-2.8 0.9-5.3 1.6-5.8 1.6-0.4 0-1.2-1.4-1.7-3.2-0.6-1.8-1-3.7-1-4.3 0-0.5 2.2-1.7 5-2.7 4.2-1.5 6.2-3.2 12.6-10.8 4.1-4.9 7.7-9 8-9zm-365.7 1c0.3 0 6.7 2.3 14.1 5.2 7.4 2.8 13.9 5.5 14.5 5.9 0.6 0.6 0.5 1.9-0.5 4-0.8 1.6-2 3-2.5 3-0.6 0-3.9-1.2-7.5-2.6-3.6-1.3-7-2.5-7.5-2.5-0.6 0 1.2 2.3 4 5 3.5 3.5 4.8 5.4 4.2 6.5-0.5 1.1-2.2 1.6-5.5 1.6-2.6 0.1-5.6 0.4-6.7 0.8-1.6 0.6-0.4 1.4 5.9 3.7 7.7 2.9 7.8 3 7.2 5.9-0.4 1.7-1 3.4-1.4 3.8-0.4 0.5-7.2-1.6-15.2-4.6-12.3-4.6-14.4-5.7-14.1-7.3 0.2-1 0.7-2.9 1.2-4.1 0.8-2.1 1.5-2.3 10.4-2.3 5.7 0 9.5-0.4 9.5-1 0-0.5-2.9-3.5-6.5-6.7-3.5-3.2-6.4-6.5-6.5-7.5 0-1 0.5-2.9 1.1-4.3 0.6-1.3 1.4-2.5 1.8-2.5zm372.6 39.6c1.6 0.2 3.8 1.5 4.8 2.7 1 1.2 2.2 3.8 2.7 5.7 0.6 2 1 5 1 6.8 0 1.8-0.5 4.4-1 5.7-0.9 2.3-1.2 2.4-3.6 1.3-2.2-1.1-2.4-1.7-1.9-5.3 0.5-3.1 0.3-4.5-1.4-6.5-1.8-2.2-2.1-2.3-3.5-1-0.9 0.9-2.3 4-3.1 7-0.8 3.1-2.5 6.6-3.8 7.8-1.5 1.6-3.4 2.3-6 2.3-2.9-0.1-4.3-0.7-6.2-3.1-1.5-1.8-2.8-4.8-3.1-7.7-0.4-2.6-0.4-6.6-0.1-8.8 0.4-2.2 1-4.3 1.4-4.8 0.4-0.4 1.8-0.3 3 0.3 2.1 0.9 2.2 1.5 1.7 5.8-0.4 2.8-0.2 5.7 0.5 7 0.6 1.2 2 2.2 3.1 2.2 1.5 0 2.4-1.2 3.6-5.2 0.9-2.9 2.4-6.5 3.2-8.1 0.9-1.5 2.5-3.2 3.6-3.7 1.2-0.5 3.4-0.7 5.1-0.4zm-383.6 0.4c0.3 0 1.3 0.8 2.3 1.8 1.4 1.5 1.5 2.1 0.3 4.2-0.8 1.4-1.5 3.7-1.5 5-0.1 1.4 0.6 3.1 1.4 3.8 1.3 1 2 0.9 3.7-1 1.1-1.2 3.5-4.3 5.3-6.8 2.6-3.6 3.8-4.5 6.6-4.8 1.9-0.1 4.5 0.3 5.7 1 1.3 0.8 2.7 2.4 3.3 3.6 0.5 1.2 1 3.9 1 6-0.1 2.1-0.6 5.3-1.3 7.2-0.7 2-2.1 4.9-4.9 9.5l-2.2-2.2c-2.1-2.2-2.1-2.3-0.4-5.7 1-2 1.8-4.9 1.8-6.6 0-1.9-0.6-3.2-1.8-3.6-1.2-0.5-2.3 0.1-3.7 2-1.1 1.5-3.6 4.6-5.5 6.8-2.7 3.1-4.2 4.1-6.5 4.1-1.7 0-4-0.5-5.3-1.1-1.4-0.7-2.6-2.8-3.4-5.4-0.9-3.3-0.9-5.4 0.1-9.3 0.6-2.7 1.9-5.7 2.8-6.7 0.9-1 1.9-1.8 2.2-1.8zm360.2 128c1.6 0 4.4 0.7 6.1 1.4 1.8 0.8 4.1 2.2 5.1 3.3 1.1 1.1 1.8 3.4 1.8 5.8 0.1 2.2-0.8 6-2 8.3-1.2 2.3-2.1 4.6-2.1 5 0 0.4 1.9 1.6 4.1 2.7 3.7 1.9 4 2.3 3.5 5-0.4 1.7-1.3 3.7-2.1 4.5-1.3 1.4-2.2 1.2-7.7-1.9-3.5-1.9-9.9-5.3-14.3-7.7-4.4-2.3-8.1-4.7-8.3-5.3-0.1-0.6 1.7-4.7 4-9.2 2.4-4.5 5.4-9 6.7-10 1.3-1 3.7-1.9 5.2-1.9zm-318.6 16.1c0.5 0 1.8 1.3 2.7 2.9 1 1.7 1.8 3.5 1.8 4 0 0.6-2.1 2.2-4.8 3.6-2.6 1.4-7.4 4-10.7 5.9-3.3 1.9-7.6 3.7-9.5 4.1-3 0.6-4 0.2-7-2.3-2.1-1.8-4.1-4.8-4.9-7.4-0.8-2.4-1.5-4.8-1.6-5.4-0.1-0.5 0.2-1.4 0.6-2 0.4-0.5 1.8-0.9 3.1-0.9 1.7 0 2.2 0.5 2.1 2-0.1 1.1 0.6 3.2 1.5 4.7 0.9 1.5 2.6 2.8 3.7 2.8 1.1 0 2.7-0.7 3.5-1.6 0.8-0.8 1.7-1.5 2-1.5 0.3 0.1 4.1-1.9 8.5-4.4 4.4-2.5 8.4-4.5 9-4.5zm301.2 9.9c0.7 0 1.5 1.2 1.8 2.5 0.3 1.4 0.3 3 0 3.5-0.3 0.6-1.1 1-1.8 1-0.6 0-2 0.8-2.9 1.8-0.9 0.9-2.1 3-2.7 4.5-0.9 2.3-0.8 2.9 0.6 3.7 1.3 0.7 3.5 0.2 8-2 3.5-1.6 7.6-3 9.3-3 1.6 0 3.9 0.5 5 1 1.1 0.6 2.6 2.3 3.4 3.8 0.7 1.5 1.2 3.8 1 5-0.2 1.2-1.1 3.5-1.9 5-0.8 1.5-2.3 3.6-3.2 4.7-1 1.1-3.5 3.3-5.6 4.8-2 1.5-4.4 2.6-5.3 2.5-0.9-0.1-2.1-1.3-2.5-2.5-0.8-1.9-0.4-2.6 1.8-3.9 1.6-1 4-2.9 5.6-4.3 1.5-1.4 2.7-3.3 2.7-4.3 0-1-0.8-2.2-1.8-2.7-1.2-0.7-3.3-0.2-7.7 2-3.3 1.6-7.5 2.9-9.3 2.9-2.3 0-4.1-0.8-6.2-3-2.2-2.1-3-3.9-3-6.5 0-2.4 1-4.8 3.3-7.7 1.8-2.3 4.8-5.3 6.7-6.5 1.8-1.2 3.9-2.3 4.7-2.3zm-294.4 2.1c0.7 0 2.2 1 3.5 2.2 1.2 1.2 2.2 2.6 2.2 3 0 0.4-1.8 4.6-4 9.2-2.2 4.7-4 9-4 9.5 0 0.6 0.8 0.8 1.7 0.4 1-0.3 3.1-1 4.8-1.4 1.6-0.5 4.8-1.5 7-2.3 2.2-0.9 4.7-1.6 5.5-1.6 0.8 0 2.5 1 3.8 2.2 1.2 1.2 2.2 2.6 2.2 3 0 0.4-2.2 2.9-4.9 5.5-2.7 2.6-8.1 7.6-12 11-3.9 3.4-7.6 6.2-8.1 6.2-0.6 0-1.9-1.2-5.1-5.5l6.5-6.2c3.6-3.4 6.5-6.5 6.3-6.8-0.1-0.3-3.1 0.4-6.7 1.6-5.3 1.7-6.7 1.8-7.8 0.7-1.1-1-0.8-2.3 1.2-7 1.4-3.2 2.5-6.3 2.3-6.9-0.1-0.7-2.7 1.1-5.7 4-3 2.8-6.4 5.4-7.5 5.7-1.3 0.4-2.8-0.2-6.6-4.1l12.1-11.2c6.7-6.2 12.7-11.2 13.3-11.2zm275 18.2c0.5 0.1 1.5 1.3 2.3 2.5 1.3 2.1 1.1 2.5-4.6 7-3.4 2.6-6.1 4.9-6 5 0 0.1 0.7 1.4 1.5 2.7 0.8 1.4 1.9 2.5 2.5 2.5 0.5 0 2.5-1.3 4.2-2.9 1.8-1.6 4-3 4.8-3 0.8 0 2.1 0.8 2.7 1.9 1.2 1.8 0.8 2.5-2.7 5.8-2.3 2.1-4.1 4-4.1 4.2 0 0.3 0.9 1.7 2 3 1.9 2.3 2.2 2.4 3.8 1 1-0.8 2-1.7 2.3-2 0.3-0.2 2.2-1.7 4.2-3.2 2.1-1.5 4.4-2.5 5-2.3 0.7 0.3 1.6 1.3 2.1 2.3 0.5 1.2 0.1 2.3-1.5 3.7-1.3 1.1-5.6 4.7-17 14l-2.7-3c-1.4-1.7-3.5-4.2-4.6-5.6-1.1-1.3-4.6-5.5-7.7-9.4-3.2-3.8-5.8-7.6-5.9-8.5 0-0.8 2.3-3.3 5.1-5.5 2.9-2.2 5.7-4.4 6.4-5 0.6-0.5 2.4-2 4-3.3 1.6-1.2 3.4-2.1 3.9-1.9zm-249.3 8.7c0.8 0 4.6 2.2 8.5 5 3.8 2.8 7.8 6.5 8.7 8.3 1.4 2.7 1.5 3.9 0.6 7.2-0.6 2.2-2.2 5.1-3.5 6.3-1.2 1.2-4 2.5-6.1 2.8-3 0.5-4.5 0.1-8.5-2.5-2.6-1.7-5.2-3.1-5.7-3.1-0.6 0-2.2 1.9-3.8 4.1-1.5 2.2-2.9 4-3.2 4-0.3 0-1.9-1.3-6.9-5.6l7.2-10.5c4-5.8 8.1-11.8 9.2-13.2 1.1-1.5 2.7-2.7 3.5-2.8z"/>
		<path id="Path 5" class="s1" d="m298.8 242c0.4 0 3.6 4.5 7.2 10.1 3.6 5.5 6.9 10.5 7.5 10.9 0.5 0.5 2.6 1 4.5 1.2 3.2 0.3 3.5 0.6 3.7 3.5 0.3 2.8-0.2 3.6-3 5.3-1.7 1.1-4.2 2-5.5 2-1.3 0-3.3-1.3-5-3.2-1.5-1.7-4.2-4.7-6-6.5-2.2-2.3-4.1-3.3-6.2-3.3-1.6 0-4.5 0.6-6.3 1.3-1.7 0.8-5.8 3.8-8.9 6.8-3.2 3-5.8 6.1-5.7 6.9 0 0.8-3.4 4.1-7.6 7.3-4.1 3.1-8.2 5.9-9 6.2-0.9 0.3-3-1-5-3-1.9-1.9-3.5-3.8-3.5-4.3 0.1-0.4 4.2-3.4 9.3-6.7 8.8-5.7 9.3-6.2 10.5-11 0.8-2.8 2-7.4 2.8-10.3 1.1-4.2 2.3-5.9 5.9-8.7 4.4-3.4 4.6-3.5 8.2-2.1 2.6 0.9 4.8 1 6.8 0.4 1.7-0.4 3.4-1.3 3.8-1.8 0.5-0.6 1.1-1 1.5-1zm-7.6 63c0.5 0 0.8 0.6 0.8 1.3 0 0.6 0.7 12 1.5 25.2 0.8 13.2 1.5 32.3 1.5 61l-12 7.3c-6.6 3.9-12.2 7.1-12.4 7-0.2-0.2-1.5-2.7-3-5.5-1.4-2.9-2.6-6.8-2.6-8.5 0-1.8 1.3-13.9 3-26.8 1.6-12.9 4.1-28 5.5-33.5 1.4-5.5 3.3-12.6 4.3-15.9 1.6-5.6 2-6 7.2-8.7 3-1.5 5.8-2.8 6.2-2.9zm14.7 7c2.1 0 4.1 1.8 10.2 9.2 7.3 8.8 8 10.2 20.9 43.8v12.3c0 6.9-0.6 13.8-1.3 16-0.7 2.1-1.8 3.7-2.7 3.7-0.8 0-6.8-1.2-24.9-5.5l-7.5-28 0.7-17c0.4-9.4 1-20.9 1.3-25.7 0.7-8.7 0.7-8.8 3.3-8.8zm-41.2 9.1c0.8-0.1 1.3 1.1 1.3 2.7 0 1.5-0.9 13.3-2 26.2-1.1 12.9-2.7 27.8-3.5 33-0.8 5.2-2.3 12.2-3.3 15.5-1 3.3-2.1 5.9-2.5 5.8-0.4-0.2-5.3-4.2-10.8-9-5.6-4.9-10.8-10.2-11.7-11.8-1.3-2.6-1.3-4.7-0.3-16 0.7-7.1 1.5-14.6 1.8-16.5 0.5-2.5 3.6-6.9 11.1-15.5 8.8-10 11.1-12.2 14.6-13.2 2.2-0.6 4.7-1.2 5.3-1.2zm71.2 3.3c0.8 0.1 3.6 5.6 6.6 13.1 4.9 12 5.5 14.2 7.5 30 2 16.4 2 17.1 0.3 18.8-1 1-2.4 1.8-3.1 1.7-0.6 0-1.4-0.8-1.6-1.7-0.3-1-1.2-6.7-2.2-12.8-1.2-7.7-3.6-16.4-8-29.2-3.5-10.1-6.4-18.5-6.4-18.8 0-0.3 1.2-0.7 2.7-0.9 1.6-0.2 3.4-0.3 4.2-0.2zm-114.1 35.6c0.3 0.8-0.4 5.2-1.4 9.8-1.2 5-2.4 8.2-3.2 8.2-0.6 0-1.4-0.8-1.7-1.7-0.3-1 0.6-4.9 2.1-8.8 1.4-3.9 2.8-7.4 3.2-8 0.3-0.6 0.8-0.4 1 0.5zm135.2 5c0.7 0 0.9 2.8 0.8 7.8-0.2 4.3-0.7 7.7-1.3 7.7-0.6 0-1.2-2.9-1.4-6.4-0.1-3.5 0-7 0.3-7.7 0.3-0.8 1-1.4 1.6-1.4z"/>
		<path id="Path 6" fill-rule="evenodd" class="s3" d="m259 138.2c2.5-0.1 5.2 0.3 6 0.8 1.1 0.7 1.2 1.4 0.5 2.5-0.6 0.9-4.8 3.7-9.5 6.1-4.7 2.5-9.3 5.3-10.3 6.2-1 0.9-2.9 3.5-4.2 5.7-2 3.5-3.1 4.3-9.4 6.3-3.9 1.2-8.2 2.2-9.6 2.2-1.5 0-3.5-1.2-5-2.7-1.4-1.6-2.5-3.2-2.5-3.8-0.1-0.6 1-2.3 2.2-4 1.3-1.6 3.6-4.6 5.3-6.5 1.6-1.9 4.7-5.2 10.4-11.5l10.8-0.6c5.9-0.3 12.8-0.6 15.3-0.7zm22.8 4.8c0.6 0 3.1 2.4 5.4 5.3 2.4 2.8 4.7 5.5 5.3 5.9 0.5 0.4 4.1 0.5 8 0.2 3.9-0.3 10.7-1 23.6-2.6l5.6 3.8c3.1 2.2 5.9 4.1 6.4 4.4 0.4 0.3 1.3 6.4 3.2 26.5l-3.2 6.3c-1.7 3.4-2.9 6.7-2.6 7.2 0.3 0.6 1.3 1 2.2 1 1 0 3.7-1.3 6-2.8 2.4-1.5 4.3-3 4.3-3.4 0-0.5 0.6-0.8 1.2-0.8 0.7 0.1 2.1-0.7 3.1-1.7 1.3-1.3 2.1-5 3.2-14.3 1.3-11.2 1.7-12.7 4-14.7 1.5-1.4 3.4-2.1 4.7-1.9 1.3 0.3 6.1 1 10.8 1.7 7.8 1.2 8.8 1.6 12.8 5.3 2.6 2.5 4.7 5.5 5.2 7.6 0.5 1.9 1.1 5.9 2 14l-2.8-0.8c-1.5-0.5-3.6-1.4-4.7-1.9-1.1-0.6-4.1-1.8-11.5-4.3l-6.8 4.5c-3.7 2.4-7 4.4-7.5 4.5-0.4 0-2.3 1.2-4.3 2.8-2 1.5-4.3 4.1-5.3 5.7-1.1 2-6.1 5.7-15.1 11.2-7.4 4.5-16 9.7-19 11.6-3 1.9-7 4.3-12 7.2l-3-3c-1.7-1.6-3-4-3-5.2 0-1.3-0.3-3-0.8-3.9-0.4-0.9-2.2-2.5-4-3.5-2.3-1.4-3.5-3-5.4-10.4l-11.7 0.7c-6.4 0.4-12.4 1-13.4 1.3-0.9 0.3-1.9 1.4-2.2 2.5-0.3 1.1-1.2 2.7-2.1 3.5-0.8 0.8-2.5 1.5-3.7 1.5-1.2-0.1-2.8 0.5-3.5 1.2-1 1-1 1.5 0 2.4 0.7 0.6 3.7 1.8 6.5 2.7 2.9 1 6.4 1.7 7.8 1.7 1.6 0 3.3-1.1 4.7-2.9 2.2-2.8 2.5-2.8 6.8-2 2.5 0.6 5.1 1.7 5.8 2.7 0.7 0.9 1.2 2.4 1.3 3.2 0 0.8-1.8 3.8-3.9 6.5-3.6 4.6-4.3 5-8.6 5.3-3.4 0.1-5.9-0.5-9.9-2.5-2.8-1.6-5.3-3.1-5.5-3.5-0.1-0.5-0.6-0.8-1.2-0.8-0.6 0-7-3.6-14.3-8-7.2-4.3-15.4-9.4-18.2-11.2-4.4-3-5.2-4.1-7.7-10.8-1.5-4.1-2.8-8.2-2.8-9 0.1-0.8-0.7-2.3-1.7-3.3-1.7-1.7-2.5-1.7-16.8 0.2-8.3 1.1-17.7 2.3-21 2.6-3.3 0.4-6.8 0.9-7.8 1.1-0.9 0.2-3-0.7-4.7-2.1-2.4-2-3-3.3-3-6.2 0-2.5 1.1-5.5 3-8.5 1.7-2.8 4-5 5.2-5.3 1.3-0.3 5.9-1.2 10.3-2 6.3-1.1 8.1-1.2 8.7-0.2 0.3 0.6 0.3 2.6 0 4.3-0.4 1.9-0.2 3.7 0.5 4.5 0.7 0.9 5 1.7 12.5 2.2 9.4 0.7 11.6 1.1 12.8 2.7 0.8 1.1 3.4 6.4 5.7 11.7 3.1 7.4 5.1 10.5 7.7 12.6 2 1.5 3.8 2.7 4.1 2.7 0.3 0 3.4 1.8 7 4 3.6 2.2 6.5 3.7 6.5 3.3 0-0.5-0.9-2.1-2-3.8-1.1-1.6-2-4-2-5.2 0-1.3 0.7-3.8 1.4-5.5 0.8-1.8 2.7-6.4 4.1-10.3 1.5-3.8 4.7-11.9 11.5-29l10.8-6.4c5.9-3.6 10.9-6.7 11.2-7.1 0.3-0.3 1.4-1.1 2.5-1.7 1.1-0.7 2.6-1.3 3.2-1.3zm-121.4 78c0.7 0.1 3 1.2 5.2 2.5 2.2 1.4 5.3 3.2 7 4.1 1.7 0.9 6 3.6 16.5 10.4l0.5 10.4 17 10 9.5-1.7c5.2-0.9 15.1-2.6 22-3.8 6.9-1.3 14.1-2.3 15.9-2.3 3.1-0.1 3.8 0.4 6.5 4.7 2.8 4.3 3 5.3 2.1 8.4-0.9 3.1-1.8 3.8-9.5 7.2-7.1 3.1-8.8 4.3-10.2 7.1-0.9 1.9-1.9 5.1-2.3 7-0.5 3.5-0.5 3.5 7.5 8.3 4.4 2.6 9 4.7 10.2 4.7 1.3 0 3.2-0.8 4.3-1.7 1.1-1 4-3.4 6.5-5.3 2.5-1.9 4.8-3.9 5.1-4.5 0.4-0.5 2.3-2.2 4.3-3.7 2.4-1.9 6.6-3.5 21.1-6.8l8.2 5c6.1 3.7 8.9 4.8 10.5 4.4 2.1-0.6 2.2-0.6 0.8 1-1 1.2-2.7 1.7-5 1.5-1.9-0.1-4.1-0.1-4.8 0-0.6 0-1.2 0.8-1.2 1.6 0 0.8 1.7 2.2 3.7 3 2.1 0.9 4.6 2 5.5 2.5 1 0.6 2.7 1 3.8 1 1.1 0 4.8-1.3 8.3-3 3.4-1.6 7.3-3 8.7-3 1.6-0.1 4.7 1.7 8.3 4.7 3.2 2.6 6 5.5 6.3 6.3 0.3 0.8 1 6.2 1.5 12 0.6 5.8 1.7 13.9 2.5 18 0.7 4.1 1.4 9.4 1.4 11.8 0 2.3-0.3 4.4-0.8 4.7-0.4 0.2-2.1-2.6-3.8-6.3-1.8-3.7-4.7-10.1-6.5-14.2-1.8-4.1-3.8-8.1-4.3-8.8-0.6-0.7-4.2-1.9-8.1-2.7-3.9-0.9-8.4-1.5-10-1.5-2.2-0.1-3.8-1-6.1-3.8-2.1-2.6-4.9-4.4-9.2-5.9-4.3-1.6-6.4-2.9-6.7-4.3-0.3-1.1-1.7-2.8-3.3-3.9-1.5-1-3.7-2.1-5-2.5-1.6-0.4-3.8 0.5-8.3 3.7-3.3 2.3-8.2 5.7-10.7 7.6-2.6 1.9-6.4 3.8-8.5 4.3-2 0.4-7.1 3.2-11.3 6.1-4.2 2.8-12 9.8-17.3 15.4-7.2 7.7-10.2 10.2-12.1 10.2-1.4 0-3 0.6-3.7 1.3-0.6 0.7-3.2 6.3-5.7 12.3-2.6 6.1-5.1 11.8-5.6 12.8-0.6 0.9-1 2.3-1 3 0 0.6 0.6 2.6 1.5 4.2 1.4 2.8 1.4 3-0.3 3.3-0.9 0.2-2.3 0.1-3-0.2-0.6-0.3-4.6-7.7-16.5-32.1l1.7-7.5c1-4.1 2.5-10.6 3.3-14.5 1.3-6 1.3-7.8 0.1-12.3-0.7-2.9-1.5-5.2-1.8-5.2-0.3 0-1.1-1.8-1.8-4-0.9-2.9-2.3-4.7-5.2-6.5-2.2-1.4-3.8-2.9-3.5-3.5q0.5-1 4.7 0.1c2.4 0.5 4.6 1.3 5 1.7 0.4 0.4 2.3 4.5 7.8 17.7l-3.2 26 3.9 7.3c2.1 3.9 4.2 7.2 4.8 7.2 0.6 0.1 1.7-0.7 2.6-1.7 0.9-1 4-8.8 12.1-32.8l-0.8-11c-0.5-8-0.4-11.2 0.4-11.7 0.7-0.5 2-0.2 2.9 0.6 1 0.8 3.1 3.5 4.8 6 1.9 3 4.1 5 6 5.5 1.7 0.5 7.1 1.2 12 1.6 8.7 0.7 9.2 0.6 15.5-2.5 4.6-2.2 7.3-3 9.3-2.6 2.4 0.5 3.3-0.2 9.4-7.9 3.8-4.7 7.6-8.8 8.5-9 1-0.3 1.7-1.3 1.5-2.2-0.2-1.3-1.2-1.8-3.7-1.8-2.1 0.1-4.7 1.1-6.5 2.4-1.6 1.3-4.6 4.3-6.5 6.8-3.1 3.9-4.4 4.7-12 7-8.2 2.5-8.6 2.5-11.5 0.9-1.7-1-5.4-3.8-8.3-6.4-4.3-3.9-5.4-5.5-6-9.1-0.4-2.5-1.3-4.6-2.2-4.9-0.8-0.2-6.4 1.9-12.5 4.8-8.5 4-11.6 5-13.5 4.4-1.4-0.4-11.9-5.5-44.2-21.9l-7.3-14c-4-7.7-7.5-14.9-7.9-16-0.5-1.5 0.7-3.8 4.4-8.7 2.8-3.8 5.6-6.8 6.3-6.8zm234.5 5.2c0.9 0.2 2.5 1.9 3.6 3.8 1.1 1.9 1.9 4.6 1.9 6-0.1 1.4-1.3 5.1-2.7 8.3-1.4 3.1-3.2 5.7-3.8 5.7-0.7 0-2.1 0.8-3.1 1.8-1 0.9-1.8 2.5-1.7 3.5 0 0.9 0.7 3.1 1.5 4.7 1.4 2.9 1.4 3.2-1.7 8.2-1.8 2.8-4.9 6.1-6.8 7.3-1.9 1.2-7.3 4.3-12 6.9-4.7 2.6-9.1 4.6-9.7 4.6-0.7 0-4.5-1.7-8.3-3.7-4.3-2.3-7.2-4.6-7.5-5.8-0.3-1.1-0.5-3.7-0.5-5.7 0-2.1-0.8-5-1.7-6.4-1-1.4-5.2-4.4-9.3-6.7-4.1-2.2-7.8-4.5-8.2-5.1-0.4-0.6-0.8-2.1-0.8-3.3 0-1.5 0.6-2.3 1.8-2.3 0.9 0 9.3 3.1 35.7 14l4-1.5c2.2-0.8 5.5-2.8 7.2-4.5 2.8-2.6 3.3-3.6 3-7.2-0.1-2.6 0.2-4.3 1-4.5 0.7-0.2 1.3-0.9 1.3-1.5 0-0.7 3.4-4.8 7.6-9.1 4.5-4.6 8.2-7.7 9.2-7.5zm-62.3 44.8c0.9 0 1.5 0.9 1.5 2.5 0 1.4-1 3.4-2.3 4.5-1.2 1-2.8 1.9-3.5 2-0.8 0-0.5-1 0.8-2.7 1.2-1.6 2.1-3.6 2-4.5 0-1 0.7-1.8 1.5-1.8zm-117.8 107c0.5 0.1 1.2 0.7 1.8 1.4 0.6 0.7 4.8 4.4 9.5 8.2 4.7 3.8 8.7 7.1 9 7.4 0.3 0.4 3.6 3.1 7.5 6.2 3.8 3.1 9 7.5 11.5 9.8 4.2 3.8 4.9 4.1 10.2 4 4.8 0 8.3-1.1 20-6 7.9-3.4 15.9-6.8 17.8-7.7 3.3-1.4 4.3-1.4 35 4.7l3.5-2c1.9-1.1 3.5-2.3 3.5-2.7 0-0.5 1.3-1.6 3-2.5 1.8-1.1 3.2-1.4 3.5-0.8 0.3 0.6-1.1 5.2-3.2 10.3-2 5-4.3 9.7-5.2 10.4-0.9 0.6-3.2 1.4-5.1 1.8-2 0.3-5.6-0.1-8.5-1-2.8-0.8-7.5-1.5-10.5-1.5-4.5 0-8.5 1.2-23 7-9.6 3.9-19 7.8-20.8 8.6-1.7 0.7-3.9 1.4-4.7 1.4-0.8 0-3.6-1.3-6.3-3-2.6-1.6-4.9-2.9-5.2-2.9-0.3 0-4.6-2.5-9.5-5.5-7-4.1-9.2-6-9.8-8.2-0.4-1.6-1.6-5.4-2.5-8.4-0.9-3-2.6-7.3-3.7-9.4-1.1-2.2-2.6-4.1-3.3-4.3-0.6-0.2-1.5 0.7-1.8 2-0.6 2-0.7 2-1.8 0.5-0.6-1-2-1.7-3.1-1.8-1.2 0-2.5 0.5-3 1.1-0.7 0.7-1.7 0.4-3.3-1.3-1.2-1.3-2-3-1.7-3.8 0.3-0.8 0.9-3.1 1.2-5 0.3-2.1 0.1-3.8-0.6-4.2-0.6-0.5-1.1-1.2-1.1-1.8 0-0.6 0.3-1 0.7-1zm17.4 42.5l2.7 3c1.6 1.6 4.9 4.7 7.5 6.8 2.6 2 5.4 5.1 6.2 6.7 0.8 1.6 1.5 3.9 1.5 5 0 1.1-2.1 5.3-9.2 16.5l-7.6-8z"/>
		<path id="Path 7" class="s4" d="m285 97.5c11 0.3 19.5 1.1 25.5 2.4 4.9 1 13.1 3.1 18 4.6 4.9 1.5 13.1 4.6 18 6.9 4.9 2.4 12.6 6.4 17 9.1 4.4 2.6 11.1 7.3 15 10.3 3.9 3 11.4 10.1 16.8 15.6 5.4 5.6 11.5 12.6 13.5 15.6 1.9 3 3.8 5.7 4.1 6 0.3 0.3 1.5 2.1 2.5 4 1.1 1.9 2.2 3.7 2.6 4 0.3 0.3 2.2 3.7 4.2 7.5 2 3.8 5 10.6 6.7 15 1.6 4.4 3.9 11.4 5.1 15.5 1.1 4.1 2.7 12 3.6 17.5 0.8 5.5 1.6 15.2 1.6 21.5 0.1 6.3-0.2 15.1-0.6 19.5-0.4 4.4-1.8 12.7-3.1 18.5-1.3 5.8-4 14.8-6 20-2 5.2-5.9 13.8-8.7 19-2.8 5.2-6.4 11.5-8.1 14-1.7 2.5-3.4 4.6-3.9 4.8-0.4 0.1-0.8 0.6-0.8 1.2 0 0.6-1.4 2.7-3.2 4.8-1.7 2-7.7 8.2-13.3 13.7-5.5 5.5-12.3 11.5-15 13.3-2.8 1.8-5.3 2.9-5.6 2.5-0.4-0.5-1.2-13.2-1.8-28.3-0.6-15.1-1.1-33.2-1.1-53l4.7-3.8c3.4-2.7 5.3-5.3 6.6-8.8 1.7-4.5 2.5-5.2 9-8.6 4-2 8-4.5 8.9-5.5 0.9-1 5-11.8 9.2-24 7.1-20.8 7.6-22.7 6.9-28-0.5-5-1.5-6.9-6.5-13.8-3.2-4.4-5.8-8.7-5.8-9.5 0-0.8 0.9-4.1 4-13l-3.3-9.7c-1.9-5.4-3.9-10.7-4.4-11.8-0.6-1.1-3.5-4.2-6.5-7-4.5-4.1-6.8-5.4-13.9-7.6-7.5-2.2-8.8-2.4-11.7-1.2-3 1.2-3.5 1.1-9.5-2.7-3.4-2.3-6.3-4.1-6.5-4-0.1 0-1.7-1.1-3.5-2.4-1.7-1.3-7.5-4.7-12.7-7.5-5.2-2.8-10.4-5.1-11.5-5.1-1.1 0-6.5 1.5-22 6.4l-13-1.8c-7.1-1-16.8-2.7-21.5-3.8-4.7-1.1-11.2-1.9-14.5-1.9-3.3 0-8.9 0.3-12.5 0.7-4.7 0.5-7.5 1.4-10 3.3-1.9 1.4-4 3-4.6 3.6-0.6 0.6-5.5 4.2-10.8 8-5.4 3.8-11.4 8.3-13.4 9.8-2 1.5-4.6 2.7-5.7 2.7-1.1 0-3.3-0.9-5-2-1.7-1.1-3.8-2-4.8-2-0.9 0-6.8 1.4-13 3.2-6.1 1.7-11.8 3.6-12.6 4.2-0.8 0.6-2.8 4.3-4.6 8.1-1.7 3.8-3.9 8.8-6.6 15l4.5 9.3c2.5 5 4.6 9.6 4.6 10.2 0 0.6-4.5 5.4-19.9 20.5l2.6 9.5c1.4 5.2 3.7 14.2 7.8 30.4l27 18.1 2.7 16 7.1 4.5c5.3 3.4 7.5 5.5 9.1 8.8 2.1 4.2 2.1 4.4 0.4 14-1 5.3-2.3 12.6-2.9 16.2-1.1 6.4-1.1 6.7 2.1 13.5 1.8 3.9 4.7 10.1 6.5 14 1.7 3.9 4.1 9.2 5.1 11.9 1 2.7 2.7 5.4 3.7 6 1.3 0.8 1.7 2.4 1.7 6.3 0 2.9-0.4 5.3-1 5.3-0.6 0-3.4-1.2-6.3-2.6-2.8-1.5-9-5.3-13.7-8.5-4.7-3.1-12.5-9.5-17.4-14.1-4.9-4.6-11.9-11.9-15.6-16.3-3.6-4.4-8.7-11.4-11.2-15.5-2.5-4.1-6.3-11.1-8.5-15.5-2.3-4.4-5.7-12.7-7.6-18.5-2-5.8-4.5-15.7-5.7-22-1.5-8.5-2-15.7-2-27.8 0-9.7 0.6-20.1 1.5-25.9 0.9-5.4 2.7-13.6 4.1-18.3 1.4-4.7 3.4-11 4.6-14 1.2-3 3.9-9.1 6.1-13.5 2.1-4.4 6.2-11.4 8.9-15.5 2.8-4.1 8.1-11.1 11.8-15.5 3.7-4.4 9.2-10.3 12.2-13 2.9-2.7 7.4-6.6 9.8-8.6 2.5-2.1 7.9-5.9 12-8.6 4.1-2.7 12.2-7.2 18-10.1 5.8-2.8 14.8-6.4 20-8.1 5.2-1.6 12.6-3.6 16.5-4.5 3.8-0.9 10.6-2 15-2.6 4.4-0.5 15.4-0.7 24.5-0.5z"/>
		<path id="Path 8" class="s5" d="m199.4 194.3c3.8 0.2 4 0.3 9.9 10.7 3.2 5.8 6.7 11 7.6 11.7 0.9 0.7 10 5.8 20.3 11.5 10.3 5.7 18.7 10.4 18.5 10.5-0.1 0.1-11.5 2.1-25.2 4.4-13.8 2.3-25.8 3.9-26.8 3.5-1.6-0.6-1.6-0.9-0.2-4.9 0.9-2.3 1.3-4.8 1-5.5-0.3-0.6-2.9-2.2-5.8-3.5-2.8-1.3-9.8-5.7-25.6-17.2l-0.6-18.3 10.5-1.2c5.8-0.6 10.9-1.3 11.5-1.5 0.6-0.2 2.8-0.3 4.9-0.2zm173 1l4.6 2.3c2.5 1.4 5.8 3.4 10.3 6.9l-3.4 19-8.8 9.5c-4.9 5.2-9 10.4-9.3 11.5-0.2 1.3-1 1.9-2.3 1.7-1.1-0.1-10.4-2.4-20.7-5-10.7-2.7-18.4-5.1-18.1-5.7 0.3-0.6 7.6-6.9 16.3-14 11.7-9.6 16.2-13.9 17.2-16.5 1.1-2.8 2.6-4.1 7.8-6.6z"/>
		<path id="Path 9" class="s6" d="m295.7 367.5c0.2 4.9 0.2 12.6 0 17-0.1 4.4-0.3 0.4-0.3-9 0-9.4 0.2-12.9 0.3-8z"/>
		<path id="Path 10" class="s7" d="m245.5 138.4c4.9 0 7.2 0.1 5 0.3-2.2 0.2-6.3 0.2-9 0-2.8-0.2-0.9-0.3 4-0.3zm-65 49.8l-4 0.8c-2.2 0.4-6.3 1-9 1.4-2.8 0.4-4.6 0.3-4.2-0.1 0.5-0.4 3-1.1 5.5-1.4 2.6-0.4 6.3-0.6 11.7-0.7zm-7.8 12.8c0.2 2.5 0.2 6.7 0 9.5-0.2 2.7-0.3 0.7-0.3-4.5 0-5.2 0.1-7.5 0.3-5zm107.3 4.3c4.7 0 6.5 0.2 4 0.4-2.5 0.2-6.3 0.2-8.5 0-2.2-0.2-0.2-0.4 4.5-0.4zm-95.5 28.7c0.6 0 2 0.7 3.3 1.5 1.9 1.3 2.2 2.3 1.8 13l-0.3-5c-0.3-4-0.9-5.5-3.1-7.2-1.5-1.3-2.3-2.3-1.7-2.3zm173.9 102.5l0.3 5.5c0.2 3 0 6.6-1.4 10.5l-1.7-3.3c-0.9-1.7-1.6-3.8-1.6-4.5 0.1-0.6 0.6-0.2 1.3 1.1 0.7 1.2 1.6 1.9 2 1.5 0.4-0.4 0.8-3.1 0.9-5.8zm-153.1 37c1.7 3 3 4.1 5 4.2 2.2 0.3 2.6 0 2-1.4-0.7-1.5-0.6-1.6 1.4-0.2q2.1 1.4 1.1 2.4c-0.6 0.6-2.5 0.9-4.4 0.7-2.6-0.1-3.8-1-5.4-3.5-1.1-1.7-1.9-3.9-1.9-4.7 0-0.8 1 0.3 2.2 2.5zm24.4 28c1.4 3.9 2.9 9 3.4 11.5 0.5 2.5 1.1 5.9 1.5 7.5 0.5 2.7 0.4 2.9-1.1 1.5-0.8-0.8-1.3-2.1-1-2.8 0.3-0.6 0.1-1.2-0.5-1.2-0.5 0-1-1.8-1-4 0-2.3-1.2-6.7-3-10.5-1.6-3.6-3-6.7-3-7 0-0.3 0.5-0.3 1 0 0.6 0.3 1.1-0.1 1.1-0.8 0-0.6 1.2 1.9 2.6 5.8zm3.1 34.5c0.2 2.5 0.2 7 0 10-0.2 3-0.4 1-0.4-4.5 0-5.5 0.2-8 0.4-5.5z"/>
		<path id="Path 11" class="s1" d="m219 67.7c1.3 1.3 1.2 1.7-1 3.4-1.4 1.1-3.3 2-4.3 1.9-0.9 0-1.7-0.5-1.7-1 0-0.5-0.2-1.6-0.5-2.3-0.4-0.7 0.7-1.6 2.7-2.3 2.5-0.8 3.6-0.8 4.8 0.3zm3.5 10.6c1.1 0.1 2.1 1.1 2.3 2.2 0.3 1.5-0.6 2.4-3.5 3.6-3.5 1.6-3.8 1.6-4.5 0-0.4-0.9-0.8-2.2-0.9-2.9-0.1-0.7 0.8-1.7 2.2-2.2 1.3-0.5 3.3-0.8 4.4-0.7zm142.5 1.7c0.3 0 1.5 0.7 2.7 1.5 1.3 0.8 2.3 2.3 2.3 3.2 0 1-0.5 2.4-1.2 3-0.7 0.7-1.9 1.3-2.8 1.3-0.8 0-2.3-0.7-3.3-1.5-1.6-1.4-1.6-1.7 0-4.5 1-1.7 2-3 2.3-3zm54.4 31c0.6 0 1.9 0.8 2.9 1.8 1 0.9 1.8 2.5 1.7 3.4 0 1-0.7 2.1-1.6 2.5q-1.5 0.8-4.2-1.9c-2.3-2.3-2.5-2.9-1.3-4.2 0.7-0.9 1.8-1.6 2.5-1.6zm-279.5 3c0.9 0 2.2 0.5 2.9 1.2 0.7 0.7 1.2 2 1.2 2.8 0 0.8-0.8 2.3-1.8 3.3-1.6 1.7-1.8 1.6-4.4-1-2.6-2.6-2.7-2.9-1.1-4.6 0.9-0.9 2.3-1.7 3.2-1.7zm273.4 7.7c1.7 1.7 2.6 3.5 2.2 4.5-0.3 1.1-1.5 1.8-2.7 1.8-1.3 0-3.1-0.8-4.1-1.8-1-0.9-1.8-2.1-1.9-2.6-0.1-0.5 0.7-1.8 1.8-2.8 1.8-1.8 1.9-1.8 4.7 0.9zm26.7 16.3c1.4 0 3.3 0.8 4.3 1.8 1 0.9 1.8 2.3 1.7 2.9 0 1-1.8 1.1-7.2 0.7-4-0.4-7.4-0.8-7.5-1-0.2-0.2 1.2-1.3 3-2.4 1.7-1.1 4.3-2 5.7-2zm-324.4 3.2c0.1 0.1 1.4 3.2 2.8 6.8 1.4 3.6 2.4 6.7 2.1 7-0.3 0.3-1.8-0.4-3.3-1.6-1.5-1.2-3.4-3.2-4.2-4.6-1.4-2.3-1.3-2.8 0.4-5.3 1.1-1.5 2-2.5 2.2-2.3zm8.4 0.8c0.5 0 2.3 1.1 4 2.5 2.2 1.8 3 3.4 3 5.7 0.1 1.8-0.6 3.9-1.5 4.5-1.2 1.1-1.6 1-2.2-0.5-0.3-0.9-1.4-3.8-2.5-6.5-1-2.6-1.8-4.9-1.8-5.2 0-0.3 0.4-0.5 1-0.5zm310.4 7c4.2 0 7.8 0.4 8.1 1 0.3 0.6-1.4 1.9-3.8 3-2.3 1.1-4.9 2-5.7 2-0.8 0-2.2-0.7-3.1-1.7-0.9-1-1.9-2.4-2.3-3.1-0.6-0.9 1-1.2 6.8-1.2zm11.7 189c1 0 2.6 0.7 3.4 1.5 0.8 0.8 1.5 1.7 1.5 2 0 0.3-0.6 1.6-1.3 3-0.6 1.4-1.8 2.5-2.5 2.5-0.6 0-2.5-0.8-7-3.5l1.9-2.8c1.1-1.5 2.9-2.7 4-2.7zm-282.3 56c0.4 0 1.7 0.7 3 1.5 1.2 0.8 2.2 2.3 2.2 3.2 0 1-0.8 2.6-1.8 3.6-0.9 1-2.4 1.8-3.2 1.8-0.8 0-2.3-0.9-3.2-2.1-1.7-1.9-1.7-2.1 0.3-5 1.1-1.6 2.3-3 2.7-3z"/>
		<path id="Path 12" class="s2" d="m279 151c0.3 0 1.4 0.9 2.5 2 1.1 1.1 1.8 2.2 1.5 2.4-0.3 0.3-2.6 1.4-5.3 2.5-2.6 1.2-5.4 2.1-6.2 2.1-0.8 0-1.5-0.8-1.5-1.8 0-0.9 1.9-2.9 4.3-4.4 2.3-1.5 4.4-2.8 4.7-2.8z"/>
	</g>
</svg>